<?xml version="1.0" encoding="UTF-8"?>
<svg xmlns="http://www.w3.org/2000/svg" xmlns:xlink="http://www.w3.org/1999/xlink" viewBox="0 0 100 100" width="100px" height="100px">
<g id="surface2435085">
<path style=" stroke:none;fill-rule:nonzero;fill:rgb(18.039216%,80.000001%,44.313726%);fill-opacity:1;" d="M 50 15 C 30.671875 15 15 30.671875 15 50 C 15 69.328125 30.671875 85 50 85 C 69.328125 85 85 69.328125 85 50 C 85 30.671875 69.328125 15 50 15 Z M 50 15 "/>
<path style=" stroke:none;fill-rule:nonzero;fill:rgb(100%,100%,100%);fill-opacity:1;" d="M 47.5 61.5 C 47.019531 61.5 46.535156 61.328125 46.152344 60.980469 L 34.152344 48.980469 C 33.335938 48.238281 33.277344 46.972656 34.019531 46.152344 C 34.761719 45.339844 36.027344 45.277344 36.84375 46.019531 L 47.472656 56.773438 L 65.125 39.046875 C 65.929688 38.285156 67.191406 38.320312 67.953125 39.125 C 68.710938 39.929688 68.675781 41.195312 67.871094 41.953125 L 48.871094 60.953125 C 48.488281 61.316406 47.992188 61.5 47.5 61.5 Z M 47.5 61.5 "/>
<path style=" stroke:none;fill-rule:nonzero;fill:rgb(18.039216%,80.000001%,44.313726%);fill-opacity:1;" d="M 47.5 62 C 46.875 62 46.277344 61.769531 45.816406 61.347656 L 33.800781 49.332031 C 33.324219 48.902344 33.035156 48.285156 33.003906 47.617188 C 32.972656 46.953125 33.199219 46.3125 33.648438 45.816406 C 34.578125 44.800781 36.164062 44.726562 37.179688 45.652344 L 47.472656 56.0625 L 64.773438 38.691406 C 65.269531 38.222656 65.921875 37.996094 66.570312 38 C 67.238281 38.019531 67.859375 38.296875 68.316406 38.78125 C 68.777344 39.269531 69.019531 39.902344 69 40.570312 C 68.980469 41.238281 68.703125 41.859375 68.214844 42.316406 L 49.226562 61.308594 C 48.75 61.757812 48.140625 62 47.5 62 Z M 35.507812 46 C 35.101562 46 34.6875 46.164062 34.390625 46.492188 C 34.121094 46.789062 33.984375 47.171875 34.003906 47.570312 C 34.019531 47.972656 34.195312 48.339844 34.488281 48.609375 L 46.507812 60.628906 C 47.035156 61.105469 47.976562 61.109375 48.53125 60.589844 L 67.519531 41.601562 C 67.820312 41.316406 67.988281 40.945312 68 40.542969 C 68.011719 40.144531 67.863281 39.761719 67.589844 39.472656 C 67.316406 39.179688 66.941406 39.011719 66.539062 39 C 66.148438 38.980469 65.761719 39.132812 65.46875 39.410156 L 47.828125 57.125 C 47.734375 57.21875 47.605469 57.273438 47.472656 57.273438 C 47.339844 57.273438 47.210938 57.21875 47.117188 57.125 L 36.488281 46.371094 C 36.214844 46.121094 35.863281 46 35.507812 46 Z M 35.507812 46 "/>
<path style=" stroke:none;fill-rule:nonzero;fill:rgb(18.039216%,80.000001%,44.313726%);fill-opacity:1;" d="M 50 86 C 30.148438 86 14 69.851562 14 50 C 14 30.148438 30.148438 14 50 14 C 69.851562 14 86 30.148438 86 50 C 86 69.851562 69.851562 86 50 86 Z M 50 16 C 31.253906 16 16 31.253906 16 50 C 16 68.746094 31.253906 84 50 84 C 68.746094 84 84 68.746094 84 50 C 84 31.253906 68.746094 16 50 16 Z M 50 16 "/>
<path style=" stroke:none;fill-rule:nonzero;fill:rgb(18.039216%,80.000001%,44.313726%);fill-opacity:1;" d="M 65.5 24.226562 C 65.414062 24.226562 65.324219 24.203125 65.246094 24.15625 C 64.605469 23.78125 63.945312 23.421875 63.277344 23.09375 C 63.03125 22.96875 62.929688 22.671875 63.050781 22.421875 C 63.171875 22.171875 63.476562 22.074219 63.722656 22.195312 C 64.410156 22.535156 65.09375 22.90625 65.753906 23.296875 C 65.992188 23.4375 66.070312 23.742188 65.929688 23.980469 C 65.835938 24.140625 65.671875 24.226562 65.5 24.226562 Z M 68.5 26.25 C 68.394531 26.25 68.285156 26.214844 68.195312 26.148438 C 67.875 25.898438 67.546875 25.660156 67.214844 25.425781 C 66.988281 25.269531 66.933594 24.957031 67.089844 24.730469 C 67.25 24.503906 67.558594 24.449219 67.785156 24.609375 C 68.132812 24.847656 68.46875 25.097656 68.804688 25.351562 C 69.023438 25.519531 69.066406 25.835938 68.898438 26.054688 C 68.800781 26.183594 68.648438 26.25 68.5 26.25 Z M 68.5 26.25 "/>
<path style=" stroke:none;fill-rule:nonzero;fill:rgb(18.039216%,80.000001%,44.313726%);fill-opacity:1;" d="M 50 81 C 32.90625 81 19 67.09375 19 50 C 19 32.90625 32.90625 19 50 19 C 53.667969 19 57.257812 19.636719 60.671875 20.886719 C 60.933594 20.980469 61.066406 21.269531 60.96875 21.527344 C 60.875 21.789062 60.585938 21.921875 60.328125 21.824219 C 57.023438 20.613281 53.550781 20 50 20 C 33.457031 20 20 33.457031 20 50 C 20 66.542969 33.457031 80 50 80 C 66.542969 80 80 66.542969 80 50 C 80 41.5625 76.414062 33.464844 70.164062 27.785156 C 69.960938 27.601562 69.945312 27.285156 70.128906 27.078125 C 70.316406 26.875 70.632812 26.859375 70.835938 27.046875 C 77.296875 32.914062 81 41.28125 81 50 C 81 67.09375 67.09375 81 50 81 Z M 50 81 "/>
</g>
</svg>
